<svg width="207" height="201" viewBox="0 0 207 201" fill="none" xmlns="http://www.w3.org/2000/svg">
<path fill-rule="evenodd" clip-rule="evenodd" d="M70.1388 25.2865C71.1453 23.6281 73.3015 23.102 74.9549 24.1115C90.1733 33.4026 99.7854 48.0237 105.651 63.8901C109.609 74.5972 111.898 85.9654 113.056 96.8586C115.255 92.8895 117.811 89.0162 120.474 85.4007C126.378 77.3856 133.038 70.3338 138.138 65.9305C139.606 64.664 141.818 64.8302 143.081 66.3017C144.344 67.7732 144.178 69.9928 142.711 71.2593C138.039 75.2927 131.73 81.9506 126.112 89.5785C120.571 97.1002 115.917 105.275 114.008 112.595C114.176 122.918 113.447 132.253 112.346 139.436C112.051 141.354 110.262 142.671 108.349 142.375C106.435 142.08 105.123 140.285 105.418 138.366C106.472 131.489 107.182 122.38 106.991 112.251C106.716 97.699 104.585 81.2293 99.0784 66.3343C93.5759 51.4495 84.7864 38.3445 71.3103 30.117C69.6569 29.1076 69.1324 26.9449 70.1388 25.2865Z" fill="#D0F0BF"/>
<path fill-rule="evenodd" clip-rule="evenodd" d="M47.9816 0.933594L51.5696 1.10496C81.2038 2.52035 96.3603 10.1511 102.067 20.7911C107.808 31.4953 102.98 43.2497 97.6603 50.3232L97.0624 51.1181L96.1376 51.4805C86.6403 55.2014 78.5647 55.6856 71.8102 53.5466C65.0471 51.4049 60.0887 46.7855 56.5454 41.2225C49.5676 30.267 47.6583 15.0364 47.899 4.5355L47.9816 0.933594ZM54.9176 8.34147C55.1792 17.735 57.2523 29.273 62.4525 37.4374C65.3464 41.9809 69.0974 45.3148 73.9206 46.8423C78.5713 48.315 84.6632 48.2488 92.646 45.2905C97.0203 39.0867 99.5165 30.8759 95.894 24.1219C92.2436 17.3159 81.467 10.1685 54.9176 8.34147ZM158.967 47.4651L159.328 50.6169C160.52 61.0197 160.23 76.121 154.786 86.6474C151.997 92.0409 147.697 96.5158 141.345 98.2136C135.083 99.8874 127.52 98.6717 118.55 94.2473L117.587 93.772L117.054 92.8369C113.07 85.8449 109.765 74.638 114.566 64.7998C119.502 54.6835 132.071 47.7901 155.804 47.5033L158.967 47.4651ZM122.627 88.4123C130.244 91.9922 135.691 92.4489 139.54 91.4201C143.463 90.3716 146.399 87.5962 148.564 83.4104C152.566 75.6711 153.366 64.1208 152.664 54.6173C132.213 55.4475 123.879 61.7063 120.862 67.8904C117.72 74.3293 119.451 82.3673 122.627 88.4123Z" fill="#D0F0BF"/>
<path fill-rule="evenodd" clip-rule="evenodd" d="M206.07 103.67C206.767 105.872 206.475 108.343 205.692 110.348C199.708 125.679 188.74 152.441 181.995 163.89C173.264 178.711 159.589 182.929 149.611 186.006C148.244 186.428 146.945 186.828 145.739 187.232C144.154 187.762 142.058 188.738 139.324 190.011C137.899 190.675 136.299 191.42 134.508 192.224C129.496 194.476 123.398 196.983 116.681 198.725C103.222 202.215 86.9479 202.697 71.7764 191.664C50.9676 176.533 20.1125 172.664 5.85522 172.638C3.17159 172.633 0.933838 170.46 0.933838 167.702V138.884C0.933838 135.968 1.76602 132.829 3.92079 130.326C10.1776 123.057 21.2251 115.715 36.5665 114.2C51.9396 112.681 71.265 117.042 94.0529 132.538C96.7396 134.365 99.8241 135.386 102.932 135.386H138.421C143.226 135.386 147.49 137.71 150.155 141.3C161.636 126.028 171.334 115.859 179.248 109.352C187.816 102.308 194.722 99.2016 199.786 99.1076C201.278 99.0799 202.709 99.5029 203.888 100.432C205.034 101.334 205.708 102.527 206.07 103.67ZM153.019 149.22C165.508 132.133 175.742 121.325 183.692 114.79C191.45 108.412 196.661 106.407 199.449 106.162C199.456 106.277 199.456 106.413 199.445 106.571C199.417 106.954 199.323 107.378 199.165 107.785C193.122 123.268 182.36 149.451 175.96 160.314C168.695 172.646 157.73 176.082 147.716 179.219C146.294 179.665 144.892 180.104 143.522 180.562C141.555 181.22 138.854 182.476 135.837 183.88C134.49 184.506 133.079 185.163 131.643 185.808C126.776 187.994 121.089 190.32 114.926 191.918C102.624 195.108 88.7577 195.329 75.8908 185.972C54.3167 170.284 23.5576 166.007 7.94343 165.634V138.884C7.94343 137.243 8.41263 135.866 9.2266 134.92C14.3963 128.914 23.8319 122.522 37.2536 121.196C50.6436 119.874 68.3613 123.562 90.1195 138.357C93.8498 140.894 98.2864 142.416 102.932 142.416H138.421C142.625 142.416 146.032 145.834 146.032 150.05C146.032 154.481 142.25 158.075 137.712 157.863C127.385 157.382 114.643 157.113 103.582 157.549C98.0582 157.766 92.8795 158.161 88.5994 158.811C84.5079 159.432 80.6314 160.362 78.1981 161.989C76.5876 163.066 76.1524 165.249 77.2261 166.864C78.2998 168.48 80.4758 168.916 82.0863 167.839C83.0912 167.167 85.5415 166.386 89.6482 165.763C93.5664 165.168 98.4575 164.786 103.857 164.574C114.644 164.149 127.169 164.41 137.387 164.886C145.794 165.278 153.042 158.617 153.042 150.05C153.042 149.772 153.034 149.495 153.019 149.22Z" fill="#D0F0BF"/>
</svg>
