<svg width="149" height="193" viewBox="0 0 149 193" fill="none" xmlns="http://www.w3.org/2000/svg">
<path d="M45.1838 0.933594C41.2719 0.933594 37.5202 2.48761 34.754 5.25377C31.9878 8.01993 30.4338 11.7717 30.4338 15.6836H15.6838C11.7719 15.6836 8.02017 17.2376 5.25401 20.0038C2.48785 22.7699 0.933838 26.5217 0.933838 30.4336V168.1C0.933838 172.012 2.48785 175.764 5.25401 178.53C8.02017 181.296 11.7719 182.85 15.6838 182.85H74.6838V173.017H15.6838C14.3799 173.017 13.1293 172.499 12.2072 171.577C11.2852 170.655 10.7672 169.404 10.7672 168.1V30.4336C10.7672 29.1296 11.2852 27.879 12.2072 26.957C13.1293 26.0349 14.3799 25.5169 15.6838 25.5169H30.4338C30.4338 29.4289 31.9878 33.1806 34.754 35.9468C37.5202 38.7129 41.2719 40.2669 45.1838 40.2669H84.5172C88.4291 40.2669 92.1808 38.7129 94.947 35.9468C97.7132 33.1806 99.2672 29.4289 99.2672 25.5169H114.017C115.321 25.5169 116.572 26.0349 117.494 26.957C118.416 27.879 118.934 29.1296 118.934 30.4336V104.184H128.767V30.4336C128.767 26.5217 127.213 22.7699 124.447 20.0038C121.681 17.2376 117.929 15.6836 114.017 15.6836H99.2672C99.2672 11.7717 97.7132 8.01993 94.947 5.25377C92.1808 2.48761 88.4291 0.933594 84.5172 0.933594H45.1838ZM40.2672 15.6836C40.2672 14.3796 40.7852 13.129 41.7072 12.207C42.6293 11.2849 43.8799 10.7669 45.1838 10.7669H84.5172C85.8211 10.7669 87.0717 11.2849 87.9938 12.207C88.9158 13.129 89.4338 14.3796 89.4338 15.6836V25.5169C89.4338 26.8209 88.9158 28.0715 87.9938 28.9935C87.0717 29.9156 85.8211 30.4336 84.5172 30.4336H45.1838C43.8799 30.4336 42.6293 29.9156 41.7072 28.9935C40.7852 28.0715 40.2672 26.8209 40.2672 25.5169V15.6836ZM59.9338 74.6836V59.9336H69.7672V74.6836H84.5172V84.5169H69.7672V99.2669H59.9338V84.5169H45.1838V74.6836H59.9338ZM79.6005 118.934C79.6005 117.63 80.1185 116.379 81.0406 115.457C81.9626 114.535 83.2132 114.017 84.5172 114.017H143.517C144.821 114.017 146.072 114.535 146.994 115.457C147.916 116.379 148.434 117.63 148.434 118.934V152.313C148.434 157.978 147.035 163.556 144.361 168.552C141.688 173.547 137.823 177.805 133.109 180.947L116.746 191.863C115.938 192.402 114.988 192.689 114.017 192.689C113.046 192.689 112.096 192.402 111.288 191.863L94.9258 180.947C90.2124 177.805 86.3476 173.548 83.6742 168.554C81.0008 163.559 79.6015 157.983 79.6005 152.318V118.934ZM89.4338 123.85V152.313C89.4343 156.36 90.434 160.344 92.344 163.912C94.2541 167.48 97.0156 170.522 100.383 172.766L114.017 181.867L127.651 172.771C131.019 170.527 133.78 167.485 135.69 163.917C137.6 160.349 138.6 156.365 138.6 152.318V123.85H89.4338ZM112.577 161.743L132.243 142.076L125.291 135.124L109.101 151.315L102.743 144.958L95.7911 151.91L105.624 161.743C106.546 162.665 107.797 163.183 109.101 163.183C110.404 163.183 111.655 162.665 112.577 161.743Z" fill="#D0F0BF"/>
<path d="M45.1838 0.933594C41.2719 0.933594 37.5202 2.48761 34.754 5.25377C31.9878 8.01993 30.4338 11.7717 30.4338 15.6836H15.6838C11.7719 15.6836 8.02017 17.2376 5.25401 20.0038C2.48785 22.7699 0.933838 26.5217 0.933838 30.4336V168.1C0.933838 172.012 2.48785 175.764 5.25401 178.53C8.02017 181.296 11.7719 182.85 15.6838 182.85H74.6838V173.017H15.6838C14.3799 173.017 13.1293 172.499 12.2072 171.577C11.2852 170.655 10.7672 169.404 10.7672 168.1V30.4336C10.7672 29.1296 11.2852 27.879 12.2072 26.957C13.1293 26.0349 14.3799 25.5169 15.6838 25.5169H30.4338C30.4338 29.4289 31.9878 33.1806 34.754 35.9468C37.5202 38.7129 41.2719 40.2669 45.1838 40.2669H84.5172C88.4291 40.2669 92.1808 38.7129 94.947 35.9468C97.7132 33.1806 99.2672 29.4289 99.2672 25.5169H114.017C115.321 25.5169 116.572 26.0349 117.494 26.957C118.416 27.879 118.934 29.1296 118.934 30.4336V104.184H128.767V30.4336C128.767 26.5217 127.213 22.7699 124.447 20.0038C121.681 17.2376 117.929 15.6836 114.017 15.6836H99.2672C99.2672 11.7717 97.7132 8.01993 94.947 5.25377C92.1808 2.48761 88.4291 0.933594 84.5172 0.933594H45.1838ZM40.2672 15.6836C40.2672 14.3796 40.7852 13.129 41.7072 12.207C42.6293 11.2849 43.8799 10.7669 45.1838 10.7669H84.5172C85.8211 10.7669 87.0717 11.2849 87.9938 12.207C88.9158 13.129 89.4338 14.3796 89.4338 15.6836V25.5169C89.4338 26.8209 88.9158 28.0715 87.9938 28.9935C87.0717 29.9156 85.8211 30.4336 84.5172 30.4336H45.1838C43.8799 30.4336 42.6293 29.9156 41.7072 28.9935C40.7852 28.0715 40.2672 26.8209 40.2672 25.5169V15.6836ZM59.9338 74.6836V59.9336H69.7672V74.6836H84.5172V84.5169H69.7672V99.2669H59.9338V84.5169H45.1838V74.6836H59.9338ZM79.6005 118.934C79.6005 117.63 80.1185 116.379 81.0406 115.457C81.9626 114.535 83.2132 114.017 84.5172 114.017H143.517C144.821 114.017 146.072 114.535 146.994 115.457C147.916 116.379 148.434 117.63 148.434 118.934V152.313C148.434 157.978 147.035 163.556 144.361 168.552C141.688 173.547 137.823 177.805 133.109 180.947L116.746 191.863C115.938 192.402 114.988 192.689 114.017 192.689C113.046 192.689 112.096 192.402 111.288 191.863L94.9258 180.947C90.2124 177.805 86.3476 173.548 83.6742 168.554C81.0008 163.559 79.6015 157.983 79.6005 152.318V118.934ZM89.4338 123.85V152.313C89.4343 156.36 90.434 160.344 92.344 163.912C94.2541 167.48 97.0156 170.522 100.383 172.766L114.017 181.867L127.651 172.771C131.019 170.527 133.78 167.485 135.69 163.917C137.6 160.349 138.6 156.365 138.6 152.318V123.85H89.4338ZM112.577 161.743L132.243 142.076L125.291 135.124L109.101 151.315L102.743 144.958L95.7911 151.91L105.624 161.743C106.546 162.665 107.797 163.183 109.101 163.183C110.404 163.183 111.655 162.665 112.577 161.743Z" stroke="#D0F0BF"/>
</svg>
