<svg width="207" height="200" viewBox="0 0 207 200" fill="none" xmlns="http://www.w3.org/2000/svg">
<path fill-rule="evenodd" clip-rule="evenodd" d="M99.1179 13.1716C97.5558 11.6095 95.0231 11.6095 93.461 13.1716L13.1716 93.461C11.6095 95.0231 11.6095 97.5558 13.1716 99.1179L21.4857 107.432C23.0478 108.994 25.5805 108.994 27.1426 107.432L87.2789 47.2957C93.5273 41.0473 103.658 41.0473 109.906 47.2957L170.043 107.432C176.291 113.68 176.291 123.811 170.043 130.059L164.032 136.07C157.783 142.319 147.653 142.319 141.404 136.07L99.1179 93.7839C97.5558 92.2218 95.0231 92.2218 93.461 93.7839L54.6293 132.616C53.0672 134.178 53.0672 136.71 54.6293 138.272L62.9435 146.587C64.5056 148.149 67.0382 148.149 68.6003 146.587L87.2789 127.908C93.5273 121.66 103.658 121.66 109.906 127.908L128.585 146.587C134.833 152.835 134.833 162.966 128.585 169.214L116.411 181.388C116.806 182.702 117.018 184.096 117.018 185.539C117.018 193.489 110.573 199.934 102.623 199.934C94.6731 199.934 88.2282 193.489 88.2282 185.539C88.2282 177.589 94.6731 171.144 102.623 171.144C104.699 171.144 106.672 171.583 108.455 172.374L120.1 160.729C121.662 159.167 121.662 156.634 120.1 155.072L101.421 136.393C99.859 134.831 97.3263 134.831 95.7642 136.393L77.0856 155.072C70.8372 161.32 60.7066 161.32 54.4582 155.072L46.144 146.758C39.8957 140.509 39.8957 130.379 46.1441 124.13L84.9757 85.2986C91.2241 79.0502 101.355 79.0502 107.603 85.2986L149.89 127.585C151.452 129.147 153.984 129.147 155.546 127.585L161.557 121.574C163.12 120.012 163.12 117.479 161.557 115.917L101.421 55.7809C99.859 54.2188 97.3263 54.2188 95.7642 55.7809L35.6279 115.917C29.3795 122.166 19.2488 122.166 13.0004 115.917L4.68629 107.603C-1.5621 101.355 -1.56209 91.2241 4.68629 84.9757L84.9757 4.68629C91.2241 -1.5621 101.355 -1.56209 107.603 4.68629L132.899 29.9819V24.2835C132.899 18.7607 137.376 14.2835 142.899 14.2835H161.961C167.484 14.2835 171.961 18.7607 171.961 24.2835V66.1656L187.861 82.0649C189.302 81.5808 190.844 81.3185 192.448 81.3185C200.399 81.3185 206.843 87.7634 206.843 95.7135C206.843 103.664 200.399 110.109 192.448 110.109C184.498 110.109 178.053 103.664 178.053 95.7135C178.053 93.7934 178.429 91.9612 179.112 90.2862L163.183 74.358C161.12 72.2951 159.961 69.4972 159.961 66.5799V26.2835H144.899V44.4672V58.9525L134.656 48.7099L99.1179 13.1716Z" fill="#D0F0BF"/>
</svg>
