<svg width="147" height="162" viewBox="0 0 147 162" fill="none" xmlns="http://www.w3.org/2000/svg">
<path fill-rule="evenodd" clip-rule="evenodd" d="M133.723 0.0030907C135.383 -0.0339076 137.034 0.261591 138.579 0.872245C140.128 1.48464 141.539 2.40154 142.727 3.56868C143.915 4.73581 144.858 6.12948 145.498 7.66723C146.138 9.20496 146.463 10.8555 146.454 12.5212L146.454 12.574C146.16 31.0232 144.2 60.5391 130.334 85.5491C123.35 98.1451 113.322 109.645 98.9848 117.968C84.6542 126.287 66.3023 131.267 42.9167 131.267C40.1553 131.267 37.9167 129.029 37.9167 126.267C37.9167 123.506 40.1553 121.267 42.9167 121.267C64.8567 121.267 81.4119 116.607 93.9644 109.32C106.51 102.037 115.342 91.966 121.588 80.7001C134.174 58.0003 136.163 30.6495 136.455 12.4483C136.454 12.1266 136.39 11.8081 136.266 11.511C136.14 11.208 135.954 10.9333 135.72 10.7033C135.486 10.4733 135.208 10.2926 134.903 10.1719C134.597 10.0512 134.271 9.99299 133.943 10.0007L133.918 10.0012C70.1311 11.1727 39.9404 27.2007 25.1971 48.2264C15.4871 62.0742 11.9804 78.6569 10.7146 96.3717C19.7493 83.8812 36.068 71.8444 65.0466 68.222C67.7867 67.8795 70.2856 69.8231 70.6281 72.5632C70.9706 75.3033 69.027 77.8023 66.2869 78.1448C37.3608 81.7606 23.5799 94.2399 16.8417 105.189C13.408 110.769 11.691 116.137 10.835 120.096C10.4079 122.071 10.1987 123.68 10.0965 124.766C10.0455 125.308 10.0214 125.718 10.01 125.975C10.0043 126.104 10.0018 126.194 10.0008 126.244C10.0003 126.263 10.0001 126.276 10.0001 126.283V156.6C10.0001 159.362 7.76148 161.6 5.00006 161.6C2.23863 161.6 5.69399e-05 159.362 5.69399e-05 156.6L2.83297e-05 125.489C-0.00147561 97.8432 -0.00317001 66.7473 17.0094 42.4852C34.4716 17.582 68.6908 1.19926 133.723 0.0030907Z" fill="#D0F0BF"/>
</svg>
