<svg width="157" height="200" viewBox="0 0 157 200" fill="none" xmlns="http://www.w3.org/2000/svg">
<path fill-rule="evenodd" clip-rule="evenodd" d="M40.5807 93.0295V122.788C40.5807 133.491 45.9999 142.93 54.2503 148.525H18.006V153.887H138.136V148.525H102.16C106.784 145.39 110.518 141.047 112.908 135.95L113.345 135.917C122.62 135.216 129.012 132.221 132.384 127.364C135.782 122.467 135.6 116.424 133.379 110.812C130.916 104.588 125.513 101.933 121.167 100.821C119.149 100.305 117.268 100.093 115.83 100.012V93.0295H40.5807ZM71.7552 148.525C57.5065 148.525 45.9556 137.003 45.9556 122.788V98.3914H110.455V100.202V100.218V102.786V122.788C110.455 137.003 98.9038 148.525 84.655 148.525H71.7552ZM115.83 105.385C116.964 105.463 118.365 105.64 119.832 106.015C123.346 106.914 126.811 108.817 128.38 112.781C130.19 117.357 130.008 121.367 127.964 124.312C126.059 127.057 122.105 129.507 114.894 130.38C115.505 127.95 115.83 125.407 115.83 122.788V105.385Z" fill="#D0F0BF"/>
<path d="M62.3491 159.786V165.147H94.5986V159.786H62.3491Z" fill="#D0F0BF"/>
<path fill-rule="evenodd" clip-rule="evenodd" d="M81.1952 87.298C83.0234 87.1794 84.8449 86.9362 86.646 86.5682C94.0566 85.0543 101.12 81.4298 106.869 75.6946C112.618 69.9594 116.252 62.9128 117.769 55.52C118.138 53.7233 118.382 51.9062 118.501 50.0825C116.673 50.2011 114.851 50.4443 113.05 50.8123C105.64 52.3262 98.5759 55.9507 92.8268 61.6859C87.0777 67.4211 83.4444 74.4677 81.9268 81.8605C81.558 83.6571 81.3141 85.4743 81.1952 87.298ZM103.069 71.9031C98.6452 76.3159 93.3294 79.2836 87.6996 80.8094C89.2291 75.1932 92.2039 69.8902 96.6274 65.4774C101.051 61.0645 106.367 58.0969 111.997 56.5711C110.467 62.1873 107.492 67.4903 103.069 71.9031Z" fill="#D0F0BF"/>
<path fill-rule="evenodd" clip-rule="evenodd" d="M70.5883 86.5682C72.3894 86.9362 74.2109 87.1794 76.039 87.298C75.9202 85.4743 75.6763 83.6571 75.3075 81.8605C73.7899 74.4677 70.1566 67.4211 64.4075 61.6859C58.6584 55.9507 51.5947 52.3262 44.1841 50.8123C42.383 50.4443 40.5615 50.2011 38.7333 50.0825C38.8522 51.9062 39.0961 53.7233 39.4649 55.52C40.9825 62.9128 44.6158 69.9594 50.3649 75.6946C56.114 81.4298 63.1777 85.0543 70.5883 86.5682ZM69.5347 80.8094C63.9049 79.2836 58.5891 76.3159 54.1655 71.9031C49.742 67.4903 46.7672 62.1873 45.2377 56.5711C50.8675 58.0969 56.1833 61.0645 60.6069 65.4774C65.0304 69.8902 68.0052 75.1932 69.5347 80.8094Z" fill="#D0F0BF"/>
<path fill-rule="evenodd" clip-rule="evenodd" d="M78.7286 68.7165C77.52 67.3431 76.4044 65.8862 75.3917 64.3555C71.2246 58.0576 68.799 50.5119 68.799 42.4011C68.799 34.2903 71.2246 26.7447 75.3917 20.4468C76.4044 18.9161 77.52 17.4592 78.7286 16.0858C79.9373 17.4592 81.0529 18.9161 82.0656 20.4468C86.2327 26.7447 88.6583 34.2904 88.6583 42.4012C88.6583 50.512 86.2327 58.0576 82.0656 64.3555C81.0529 65.8862 79.9373 67.3431 78.7286 68.7165ZM74.1739 42.4011C74.1739 48.6418 75.8293 54.4901 78.7286 59.5402C81.628 54.4901 83.2833 48.6418 83.2833 42.4012C83.2833 36.1605 81.628 30.3122 78.7286 25.2621C75.8293 30.3122 74.1739 36.1605 74.1739 42.4011Z" fill="#D0F0BF"/>
<path fill-rule="evenodd" clip-rule="evenodd" d="M0 78.0161C0 34.929 35.0136 0 78.2051 0C121.397 0 156.41 34.929 156.41 78.0161V121.984C156.41 165.071 121.397 200 78.2051 200C35.0136 200 0 165.071 0 121.984V78.0161ZM78.2051 5.36193C37.9821 5.36193 5.37492 37.8903 5.37492 78.0161V121.984C5.37492 162.11 37.9821 194.638 78.2051 194.638C118.428 194.638 151.035 162.11 151.035 121.984V78.0161C151.035 37.8903 118.428 5.36193 78.2051 5.36193Z" fill="#D0F0BF"/>
</svg>
