<svg width="161" height="215" viewBox="0 0 161 215" fill="none" xmlns="http://www.w3.org/2000/svg">
<path fill-rule="evenodd" clip-rule="evenodd" d="M2.98912 1.15465C4.40467 0.426178 6.10864 0.549913 7.4041 1.47524L158.404 109.332C159.908 110.406 160.545 112.328 159.981 114.088C159.417 115.847 157.781 117.041 155.934 117.041H74.115L159.024 206.944C160.189 208.178 160.508 209.986 159.837 211.545C159.165 213.103 157.631 214.112 155.934 214.112H4.93384C2.58663 214.112 0.683838 212.209 0.683838 209.862V4.93361C0.683838 3.34161 1.57356 1.88312 2.98912 1.15465ZM9.18384 13.1922V205.612H146.074L61.1655 115.709C60.0003 114.475 59.6807 112.667 60.3524 111.108C61.0241 109.55 62.5584 108.541 64.2553 108.541H142.672L9.18384 13.1922ZM48.0767 68.5051C44.4671 68.5051 41.541 71.4313 41.541 75.0409C41.541 78.6504 44.4671 81.5766 48.0767 81.5766C51.6863 81.5766 54.6124 78.6504 54.6124 75.0409C54.6124 71.4313 51.6863 68.5051 48.0767 68.5051ZM33.041 75.0409C33.041 66.7369 39.7727 60.0051 48.0767 60.0051C56.3807 60.0051 63.1124 66.7369 63.1124 75.0409C63.1124 77.5505 62.4976 79.9165 61.4103 81.9965C63.6862 80.4762 65.0696 78.6786 65.7725 77.1166C66.7357 74.9762 69.2517 74.0218 71.3922 74.985C73.5327 75.9482 74.487 78.4643 73.5238 80.6047C70.2615 87.8544 61.6534 93.8964 48.0767 93.8964C34.5 93.8964 25.8919 87.8544 22.6296 80.6047C21.6664 78.4643 22.6208 75.9482 24.7612 74.985C26.9017 74.0218 29.4177 74.9762 30.3809 77.1166C31.0838 78.6786 32.4673 80.4762 34.7431 81.9965C33.6559 79.9165 33.041 77.5505 33.041 75.0409ZM40.472 135.65C41.6272 135.34 42.8594 135.532 43.8663 136.177L48.0767 138.876L52.2871 136.177C53.2936 135.532 54.5253 135.341 55.6801 135.65C56.8349 135.959 57.806 136.741 58.3553 137.802L60.6528 142.244L65.6448 142.013C66.8388 141.958 68.0008 142.409 68.8459 143.254C69.6911 144.099 70.1413 145.261 70.0863 146.455L69.8559 151.45L74.2949 153.743C75.3575 154.292 76.1397 155.263 76.4495 156.418C76.7593 157.574 76.568 158.806 75.9227 159.813L73.224 164.023L75.9227 168.233C76.568 169.24 76.7593 170.473 76.4495 171.628C76.1397 172.783 75.3575 173.754 74.2949 174.303L69.8559 176.596L70.0863 181.591C70.1413 182.785 69.6911 183.947 68.8459 184.792C68.0008 185.637 66.8388 186.088 65.6448 186.033L60.6528 185.802L58.3553 190.244C57.806 191.305 56.8349 192.087 55.6801 192.396C54.5253 192.705 53.2936 192.514 52.2871 191.869L48.0767 189.17L43.8663 191.869C42.8594 192.514 41.6272 192.706 40.472 192.396C39.3169 192.086 38.3457 191.304 37.7969 190.241L35.504 185.802L30.5084 186.033C29.3145 186.088 28.1525 185.637 27.3074 184.792C26.4623 183.947 26.0121 182.785 26.0671 181.591L26.2975 176.596L21.8585 174.303C20.7959 173.754 20.0137 172.783 19.7039 171.628C19.3941 170.473 19.5854 169.24 20.2307 168.233L22.9294 164.023L20.2307 159.813C19.5854 158.806 19.3941 157.574 19.7039 156.418C20.0137 155.263 20.7959 154.292 21.8585 153.743L26.2975 151.45L26.0671 146.455C26.0121 145.261 26.4623 144.099 27.3074 143.254C28.1525 142.409 29.3145 141.958 30.5084 142.013L35.504 142.244L37.7969 137.805C38.3457 136.742 39.3169 135.96 40.472 135.65ZM43.2077 145.851L41.8059 148.565C41.0439 150.04 39.4926 150.937 37.834 150.86L34.7729 150.719L34.914 153.78C34.9905 155.439 34.0941 156.99 32.6189 157.752L29.9048 159.154L31.5556 161.73C32.4515 163.127 32.4515 164.919 31.5556 166.316L29.9048 168.892L32.6189 170.294C34.0941 171.056 34.9905 172.607 34.914 174.266L34.7729 177.327L37.834 177.186C39.4926 177.109 41.0439 178.006 41.8059 179.481L43.2077 182.195L45.7833 180.544C47.181 179.648 48.9724 179.648 50.3701 180.544L52.9481 182.196L54.3541 179.478C55.1166 178.005 56.6672 177.109 58.3249 177.186L61.3805 177.327L61.2394 174.266C61.1629 172.607 62.0593 171.056 63.5345 170.294L66.2486 168.892L64.5978 166.316C63.7019 164.919 63.7019 163.127 64.5978 161.73L66.2486 159.154L63.5345 157.752C62.0593 156.99 61.1629 155.439 61.2394 153.78L61.3805 150.719L58.3249 150.86C56.6672 150.937 55.1166 150.042 54.3541 148.568L52.9481 145.85L50.3701 147.502C48.9724 148.398 47.181 148.398 45.7833 147.502L43.2077 145.851Z" fill="#D0F0BF"/>
</svg>
