<svg width="204" height="201" viewBox="0 0 204 201" fill="none" xmlns="http://www.w3.org/2000/svg">
<path fill-rule="evenodd" clip-rule="evenodd" d="M20.4219 4.73473C29.7399 -1.9186 42.7094 0.394373 49.151 9.85823L79.1835 53.9811C86.5639 53.3029 94.2606 52.9445 102.168 52.9445C128.903 52.9445 153.4 57.0422 171.45 63.8865C180.452 67.2999 188.189 71.523 193.79 76.5445C199.388 81.5631 203.403 87.9165 203.403 95.3826C203.403 96.4957 203.314 97.5841 203.143 98.647H203.403C203.403 155.068 158.149 200.934 102.168 200.934C46.1879 200.934 0.933838 155.068 0.933838 98.647H1.19351C1.02308 97.5841 0.933838 96.4957 0.933838 95.3826C0.933838 85.923 7.30822 78.3054 15.489 72.6825C21.2193 68.7439 28.441 65.3335 36.7141 62.5092L15.7007 33.2194C9.12447 24.0529 11.2397 11.2911 20.4219 4.73473ZM16.1995 118.563C25.1466 158.297 60.2902 187.876 102.168 187.876C144.047 187.876 179.19 158.297 188.137 118.563C183.386 121.726 177.726 124.499 171.45 126.879C153.4 133.723 128.903 137.821 102.168 137.821C75.4337 137.821 50.9372 133.723 32.8867 126.879C26.6109 124.499 20.9504 121.726 16.1995 118.563ZM113.011 103.679L87.6587 66.4326C92.3809 66.1496 97.2272 66.0024 102.168 66.0024C127.737 66.0024 150.592 69.9433 166.817 76.0955C174.953 79.1804 181.086 82.695 185.069 86.2658C189.055 89.8394 190.34 92.9326 190.34 95.3826C190.34 97.8326 189.055 100.926 185.069 104.499C181.086 108.07 174.953 111.585 166.817 114.67C150.592 120.822 127.737 124.763 102.168 124.763C100.306 124.763 98.4574 124.742 96.6251 124.701C96.4594 123.772 96.0888 122.864 95.5018 122.046L26.3156 25.6094C23.9494 22.3112 24.7105 17.7194 28.0144 15.3603C31.367 12.9664 36.0336 13.7986 38.3514 17.2038L102.211 111.025C104.24 114.006 108.303 114.779 111.285 112.75C114.267 110.722 115.04 106.661 113.011 103.679ZM44.7058 73.6487L80.6927 123.81C63.8949 122.29 49.0368 119.037 37.5194 114.67C29.3837 111.585 23.2511 108.07 19.2679 104.499C15.2816 100.926 13.9964 97.8326 13.9964 95.3826C13.9964 92.2813 16.1263 88.0912 22.8899 83.4423C28.1784 79.8073 35.5712 76.4392 44.7058 73.6487Z" fill="#D0F0BF"/>
</svg>
